<?xml version="1.0" encoding="utf-8"?>
<!-- Generator: Adobe Illustrator 17.0.0, SVG Export Plug-In . SVG Version: 6.00 Build 0)  -->
<!DOCTYPE svg PUBLIC "-//W3C//DTD SVG 1.1//EN" "http://www.w3.org/Graphics/SVG/1.1/DTD/svg11.dtd">
<svg version="1.1" id="Capa_1" xmlns="http://www.w3.org/2000/svg" xmlns:xlink="http://www.w3.org/1999/xlink" x="0px" y="0px"
	 width="64px" height="64px" viewBox="0 0 64 64" enable-background="new 0 0 64 64" xml:space="preserve">
<path fill="#FFFFFF" fill-rule="evenodd" clip-rule="evenodd" d="M33.519,58.516c-14.629,0-26.484-11.922-26.484-26.55
	c0-14.622,11.855-26.481,26.484-26.481c14.623,0,26.478,11.859,26.478,26.481C59.997,46.594,48.142,58.516,33.519,58.516z
	 M34.573,13.835v7.572c0,0.604-0.488,1.092-1.092,1.092c-0.599,0-1.025-0.488-1.025-1.092v-7.572c0-1.657-1.35-2.955-2.977-2.641
	c-8.475,1.638-15.135,8.316-16.745,16.803c-0.309,1.628,0.993,2.976,2.65,2.976h7.57c0.604,0,1.094,0.488,1.094,1.096
	c0,0.604-0.489,1.094-1.094,1.094h-7.561c-1.657,0-2.946,1.349-2.622,2.974c1.675,8.391,8.296,14.982,16.708,16.606
	c1.627,0.314,2.977-0.983,2.977-2.641v-7.41c0-0.621,0.438-1.122,1.062-1.122c0.621,0,1.123,0.501,1.123,1.122v7.41
	c0,1.657,1.35,2.951,2.976,2.632c8.376-1.645,14.969-8.228,16.641-16.598c0.324-1.624-0.965-2.974-2.622-2.974h-7.461
	c-0.657,0-1.194-0.406-1.194-1.063c0-0.658,0.537-1.126,1.194-1.126h7.474c1.657,0,2.959-1.351,2.649-2.978
	c-1.612-8.486-8.274-15.165-16.749-16.802C35.922,10.88,34.573,12.178,34.573,13.835z"/>
</svg>
